<svg xmlns="http://www.w3.org/2000/svg" width="32" height="32" fill="none" viewBox="0 0 32 32"><mask id="a" width="32" height="33" x="0" y="0" maskUnits="userSpaceOnUse" style="mask-type:alpha"><path fill="#d9d9d9" d="M0 .01h32v32H0z"/></mask><g mask="url(#a)"><path fill="#c4170c" d="M14.667 14.877v-4.2q0-.567.383-.95a1.3 1.3 0 0 1 .95-.384q.567 0 .95.384.383.383.383.95v4.2l1.2-1.167q.367-.367.917-.367t.95.4q.366.367.367.934 0 .566-.367.933l-3.467 3.467a1.28 1.28 0 0 1-.933.4 1.28 1.28 0 0 1-.934-.4L11.6 15.61a1.3 1.3 0 0 1-.383-.917 1.24 1.24 0 0 1 .383-.95q.366-.366.917-.383.55-.016.95.35zm-5.334 15.8a2.57 2.57 0 0 1-1.883-.784 2.57 2.57 0 0 1-.784-1.883v-24q0-1.1.784-1.883a2.57 2.57 0 0 1 1.883-.784h13.333q1.101 0 1.884.784.783.783.783 1.883v24q0 1.1-.783 1.883a2.57 2.57 0 0 1-1.884.784zm0-9.334h13.333V8.01H9.333zM14 26.677h4a.64.64 0 0 0 .466-.2.64.64 0 0 0 .2-.467.64.64 0 0 0-.2-.467.64.64 0 0 0-.466-.2h-4a.64.64 0 0 0-.467.2.64.64 0 0 0-.2.467.64.64 0 0 0 .2.467.64.64 0 0 0 .467.2"/></g></svg>