<svg width="24" height="24" fill="none" xmlns="http://www.w3.org/2000/svg"><path d="M23 12c0-6.076-4.924-11-11-11S1 5.924 1 12c0 5.157 3.55 9.486 8.342 10.674v-7.312h-2.27V12h2.27v-1.448c0-3.744 1.694-5.478 5.368-5.478.696 0 1.901.137 2.39.273v3.045c-.26-.026-.709-.04-1.272-.04-1.804 0-2.5.682-2.5 2.46V12h3.596l-.616 3.362h-2.975v7.559C18.78 22.26 23 17.623 23 12z" fill="#0866FF"/><path d="M16.308 15.361L16.924 12h-3.595v-1.188c0-1.778.695-2.46 2.5-2.46.558 0 1.011.014 1.27.04v-3.05c-.492-.136-1.693-.272-2.388-.272-3.674 0-5.368 1.734-5.368 5.478V12h-2.27v3.361h2.27v7.313a11.019 11.019 0 003.99.247v-7.56h2.975z" fill="#fff"/></svg>