<svg xmlns="http://www.w3.org/2000/svg" width="100" height="100" xmlns:xlink="http://www.w3.org/1999/xlink"><defs><path id="a" d="M34.3 61C24.8 61 17 53 17 43.6c0-1.7.3-3.4.7-5 2-7 8.3-12 15.8-12.4C37.3 18.8 45 14 53.2 14c10.5 0 19.6 7.5 21.7 17.7 7.3 1 13 7 13 14.8 0 8-6.4 14.5-14.5 14.5H34.3z"/></defs><g fill="none" fill-rule="evenodd" transform="translate(7 19)"><circle cx="28" cy="28" r="16" fill="#FFAD00" fill-opacity=".1" stroke="#FFAC00" stroke-width="3"/><path stroke="#FFAC00" stroke-width="3" d="M28.5 6V0M44 12l4.5-4.5M12 12L7.2 7.2M7.5 28.5h-7M12.5 44.5l-5 5" stroke-linecap="round"/><use fill="#F5F6F6" xlink:href="#a"/><path stroke="#BBC0C4" stroke-width="3" d="M34.3 59.5h39.2c7.2 0 13-5.8 13-13 0-6.8-5-12.4-11.8-13.3h-1l-.3-1.2c-2-9.5-10.4-16.5-20.2-16.5-7.7 0-14.8 4.4-18.4 11.4l-.4.7h-1c-6.6.3-12.3 5-14.2 11.3-.5 1.5-.7 3-.7 4.6 0 8.7 7 16 15.8 16z"/><path fill="#F5F6F6" stroke="#BBC0C4" stroke-width="3" d="M50.5 44.6c-5.8 0-10.5 4.8-10.5 10.7C40 61 44.5 65.8 50 66h28.2c4.3-.2 7.8-4 7.8-8.3 0-4.6-3.7-8.4-8.2-8.4h-.5c-1-5.6-5.5-10-11.2-10.3h-.7c-4.5 0-8.5 2.6-10.6 6.4-1.3-.5-2.7-.8-4.2-.8z"/></g></svg>