<svg xmlns="http://www.w3.org/2000/svg" width="100" height="100" xmlns:xlink="http://www.w3.org/1999/xlink"><defs><path id="a" d="M17.3 47C7.8 47 0 39 0 29.6c0-1.7.3-3.4.7-5 2-7 8.3-12 15.8-12.4C20.3 4.8 28 0 36.2 0 46.7 0 55.8 7.5 58 17.7c7.3 1 13 7 13 14.8 0 8-6.4 14.5-14.5 14.5H17.3z"/></defs><g fill="none" fill-rule="evenodd"><g transform="translate(14 15)"><use fill="#F5F6F6" xlink:href="#a"/><path stroke="#BBC0C4" stroke-width="3" d="M17.3 45.5h39.2c7.2 0 13-5.8 13-13 0-6.8-5-12.4-11.8-13.3h-1l-.3-1.2C54.4 8.5 46 1.5 36.2 1.5 28.5 1.5 21.4 6 17.8 13l-.4.7h-1c-6.4.3-12.2 5-14 11.3-.6 1.5-.8 3-.8 4.6 0 8.7 7 16 15.8 16z"/></g><g stroke="#60B0ED" stroke-width="2" stroke-linecap="round"><path fill="#D8D8D8" d="M63 67l8 6m-8.5-.7l8.6-5"/><path d="M67 65v10"/><path fill="#D8D8D8" d="M24 67l8 6m-8.5-.7l8.6-5"/><path d="M28 65v10"/><path fill="#D8D8D8" d="M77 77l8 6m-8.5-.7l8.6-5"/><path d="M81 75v10"/><path fill="#D8D8D8" d="M38 77l8 6m-8.5-.7l8.6-5"/><path d="M42 75v10"/></g><path stroke="#BBC0C4" stroke-width="2" d="M36 68s5.6-4.6 11.4 0c6 4.8 11.6-.7 11.6-.7M50 78s5.6-4.6 11.4 0c6 4.8 11.6-.7 11.6-.7" stroke-linecap="round"/></g></svg>