<svg xmlns="http://www.w3.org/2000/svg" width="100" height="100" xmlns:xlink="http://www.w3.org/1999/xlink"><defs><path id="a" d="M17.3 47C7.8 47 0 39 0 29.6c0-1.7.3-3.4.7-5 2-7 8.3-12 15.8-12.4C20.3 4.8 28 0 36.2 0 46.7 0 55.8 7.5 58 17.7c7.3 1 13 7 13 14.8 0 8-6.4 14.5-14.5 14.5H17.3z"/></defs><g fill="none" fill-rule="evenodd"><path fill="#FFD275" fill-opacity=".1" stroke="#FFD275" stroke-width="3" d="M36.6 11c7.4 6.7 8 18 1.3 25.4-7 7.4-18 8-25.8 1.4C10.2 36 11 36 11 36c-1.6-2.2-.5-4.2 2.2-4.4 0 0 1.8.3 6.2-1.2 2.6-.8 5-2.4 6.8-4.4 2-2.2 3.5-5 4-7.8 1-4.5.4-5.8.4-5.8-.2-2.8 1.7-4 4-2.7 0 0 0-.3 2 1.4z"/><g transform="translate(21 20)"><use fill="#F5F6F6" xlink:href="#a"/><path stroke="#BBC0C4" stroke-width="3" d="M17.3 45.5h39.2c7.2 0 13-5.8 13-13 0-6.8-5-12.4-11.8-13.3h-1l-.3-1.2C54.4 8.5 46 1.5 36.2 1.5 28.5 1.5 21.4 6 17.8 13l-.4.7h-1c-6.4.3-12.2 5-14 11.3-.6 1.5-.8 3-.8 4.6 0 8.7 7 16 15.8 16z"/></g><path fill="#F5F6F6" stroke="#BBC0C4" stroke-width="3" d="M54.5 50.6c-5.8 0-10.5 4.8-10.5 10.7C44 67 48.5 71.8 54 72h28.2c4.3-.2 7.8-4 7.8-8.3 0-4.6-3.7-8.4-8.2-8.4h-.5c-1-5.6-5.5-10-11.2-10.3h-.4C65 45 61 47.6 59 51.4c-1.4-.5-2.8-.8-4.3-.8z"/><path stroke="#60B0ED" stroke-width="2.4" d="M38 80l-2.5 6.5M53 77l-3.5 9.5M67 80l-3.5 9.5M82 77l-3 8m-33-9l-4.5 13.5M61 76l-5 15m19-14l-5 15" stroke-linecap="round"/></g></svg>