<svg xmlns="http://www.w3.org/2000/svg" width="100" height="100" xmlns:xlink="http://www.w3.org/1999/xlink"><defs><path id="a" d="M17.3 47C7.8 47 0 39 0 29.6c0-1.7.3-3.4.7-5 2-7 8.3-12 15.8-12.4C20.3 4.8 28 0 36.2 0 46.7 0 55.8 7.5 58 17.7c7.3 1 13 7 13 14.8 0 8-6.4 14.5-14.5 14.5H17.3z"/></defs><g fill="none" fill-rule="evenodd"><g stroke="#FFAC00" stroke-width="3" transform="translate(7 7)"><circle cx="28" cy="28" r="16" fill="#FFAD00" fill-opacity=".1"/><path d="M28.5 6V0M44 12l4.5-4.5M12 12L7.2 7.2m.3 21.3h-7m12 16l-5 5" stroke-linecap="round"/></g><g transform="translate(24 22)"><use fill="#F5F6F6" xlink:href="#a"/><path stroke="#BBC0C4" stroke-width="3" d="M17.3 45.5h39.2c7.2 0 13-5.8 13-13 0-6.8-5-12.4-11.8-13.3h-1l-.3-1.2C54.4 8.5 46 1.5 36.2 1.5 28.5 1.5 21.4 6 17.8 13l-.4.7h-1c-6.4.3-12.2 5-14 11.3-.6 1.5-.8 3-.8 4.6 0 8.7 7 16 15.8 16z"/></g><path fill="#F5F6F6" stroke="#BBC0C4" stroke-width="3" d="M57.5 52.6c-5.8 0-10.5 4.8-10.5 10.7C47 69 51.5 73.8 57 74h28.2c4.3-.2 7.8-4 7.8-8.3 0-4.6-3.7-8.4-8.2-8.4h-.5c-1-5.6-5.5-10-11.2-10.3h-.4C68 47 64 49.6 62 53.4c-1.4-.5-2.8-.8-4.3-.8z"/><path stroke="#60B0ED" stroke-width="2.4" d="M38 82l-2.5 6.5M53 79l-3.5 9.5M67 82l-3.5 9.5M82 79l-3 8m-33-9l-4.5 13.5M61 78l-5 15m19-14l-5 15" stroke-linecap="round"/></g></svg>